<?xml version="1.0" encoding="UTF-8" standalone="no"?>
<!DOCTYPE svg PUBLIC "-//W3C//DTD SVG 1.1//EN" "http://www.w3.org/Graphics/SVG/1.1/DTD/svg11.dtd">
<svg version="1.1" xmlns="http://www.w3.org/2000/svg" xmlns:xlink="http://www.w3.org/1999/xlink" preserveAspectRatio="xMidYMid meet" viewBox="0 0 400 240" width="400" height="240"><defs><path d="M260 40C248.95 40 240 31.05 240 20C240 8.95 248.95 0 260 0C272 0 368 0 380 0C391.05 0 400 8.95 400 20C400 31.05 391.05 40 380 40C356 40 272 40 260 40Z" id="a4R7c0ZSNi"></path><path d="M140 240C128.95 240 120 231.05 120 220C120 208 120 148 120 40C60 40 26.67 40 20 40C8.95 40 0 31.05 0 20C0 8.95 8.95 0 20 0C32 0 128 0 140 0C151.05 0 160 8.95 160 20C160 32 160 92 160 200C196 200 216 200 220 200C231.05 200 240 208.95 240 220C240 231.05 231.05 240 220 240C204 240 148 240 140 240Z" id="b1JkfAtL4"></path></defs><g><g><g><use xlink:href="#a4R7c0ZSNi" opacity="1" fill="#ffffff" fill-opacity="1"></use><g><use xlink:href="#a4R7c0ZSNi" opacity="1" fill-opacity="0" stroke="#000000" strokeWidth="1" stroke-opacity="0"></use></g></g><g><use xlink:href="#b1JkfAtL4" opacity="1" fill="#ffffff" fill-opacity="1"></use><g><use xlink:href="#b1JkfAtL4" opacity="1" fill-opacity="0" stroke="#000000" strokeWidth="1" stroke-opacity="0"></use></g></g></g></g></svg>
