<svg xmlns="http://www.w3.org/2000/svg" viewBox="0 0 58 58">
  <path d="M29 24c-2.757 0-5 2.243-5 5s2.243 5 5 5 5-2.243 5-5-2.243-5-5-5z"/>
  <path d="M56 27h-2.087c-.429-5.392-2.574-10.305-5.89-14.195l1.483-1.483c.781-.781.781-2.047 0-2.828s-2.047-.781-2.828 0l-1.483 1.483C41.305 6.661 36.392 4.516 31 4.087V2c0-1.104-.896-2-2-2s-2 .896-2 2v2.087c-5.392.429-10.305 2.573-14.195 5.89l-1.483-1.483c-.781-.781-2.047-.781-2.828 0s-.781 2.047 0 2.828l1.483 1.483C6.661 16.695 4.516 21.608 4.087 27H2c-1.104 0-2 .896-2 2s.896 2 2 2h2.087c.429 5.392 2.574 10.305 5.89 14.195l-1.483 1.483c-.781.781-.781 2.047 0 2.828.391.391.902.586 1.414.586s1.023-.195 1.414-.586l1.483-1.483c3.89 3.316 8.803 5.461 14.195 5.89V56c0 1.104.896 2 2 2s2-.896 2-2v-2.087c5.392-.429 10.305-2.573 14.195-5.89l1.483 1.483c.391.391.902.586 1.414.586s1.023-.195 1.414-.586c.781-.781.781-2.047 0-2.828l-1.483-1.483c3.316-3.89 5.461-8.803 5.89-14.195H56c1.104 0 2-.896 2-2s-.896-2-2-2zM29 50C17.421 50 8 40.579 8 29S17.421 8 29 8s21 9.421 21 21-9.421 21-21 21z"/>
</svg>
